# xmcd
#
# Track frame offsets:
#	150
#	12043
#	21517
#	31897
#	43279
#	55284
#	70670
#	85001
#	100841
#	113050
#	123792
#	136005
#	147993
#	157031
#	168528
#	180283
#	192879
#	205486
#
# Disc length: 2903 seconds
# Revision: 1
# Processed by: cddbd v1.5.2PL0 Copyright (c) Steve Scherf et al.
# Submitted via: dBpowerAMP V12.0
#
DISCID=ef0b5512
DTITLE=Jimmy Reed - Five Classic Albums Plus Singles  CD2
DYEAR=1960
DGENRE=Blues
TTITLE0=I'm Nervous
TTITLE1=Going By The Rive- Part 2
TTITLE2=I Ain't Got You
TTITLE3=Come Love
TTITLE4=Bright Lights, Big City
TTITLE5=I'm Mr. Luck
TTITLE6=Baby What's Wrong
TTITLE7=Found Joy
TTITLE8=Kind Of Lonesome
TTITLE9=Aw Shucks, Hush Your Mouth
TTITLE10=Tell Me You Love Me
TTITLE11=Blue Carnegie
TTITLE12=I'm A Love You
TTITLE13=Hold Me Close
TTITLE14=Blue Blue Water
TTITLE15=High and Lonesome
TTITLE16=I Found My Baby
TTITLE17=Jimmy's Boogie
EXTD=
EXTT0=
EXTT1=
EXTT2=
EXTT3=
EXTT4=
EXTT5=
EXTT6=
EXTT7=
EXTT8=
EXTT9=
EXTT10=
EXTT11=
EXTT12=
EXTT13=
EXTT14=
EXTT15=
EXTT16=
EXTT17=
PLAYORDER=
